<?xml version="1.0" encoding="utf-8"?>
<!-- Generator: Adobe Illustrator 16.0.0, SVG Export Plug-In . SVG Version: 6.00 Build 0)  -->
<!DOCTYPE svg PUBLIC "-//W3C//DTD SVG 1.1//EN" "http://www.w3.org/Graphics/SVG/1.1/DTD/svg11.dtd">
<svg version="1.1" id="Outline" xmlns="http://www.w3.org/2000/svg" xmlns:xlink="http://www.w3.org/1999/xlink" x="0px" y="0px"
	 width="512px" height="512px" viewBox="0 0 512 512" enable-background="new 0 0 512 512" xml:space="preserve">
<path fill="#BC422B" d="M465.048,222.941h-331.19l108.961-108.961c12.987-12.88,13.073-33.85,0.192-46.837
	c-0.063-0.064-0.129-0.129-0.192-0.192c-12.918-12.841-33.781-12.841-46.698,0L54.039,209.362
	c-12.438,12.365-19.465,29.159-19.539,46.698l0,0c0.161,17.424,7.182,34.083,19.539,46.367l142.082,142.411
	c12.987,12.896,33.968,12.821,46.863-0.166c12.896-12.986,12.822-33.967-0.165-46.863l0,0L133.858,289.181h331.19
	c18.291,0,33.118-14.829,33.118-33.12C498.166,237.769,483.339,222.941,465.048,222.941z"/>
</svg>
