<?xml version="1.0" encoding="utf-8"?>
<!-- Generator: Adobe Illustrator 16.0.0, SVG Export Plug-In . SVG Version: 6.00 Build 0)  -->
<!DOCTYPE svg PUBLIC "-//W3C//DTD SVG 1.1//EN" "http://www.w3.org/Graphics/SVG/1.1/DTD/svg11.dtd">
<svg version="1.1" id="Capa_1" xmlns="http://www.w3.org/2000/svg" xmlns:xlink="http://www.w3.org/1999/xlink" x="0px" y="0px"
	 width="512px" height="512px" viewBox="0 0 512 512" enable-background="new 0 0 512 512" xml:space="preserve">
<g>
	<path fill="#BC422B" d="M480,224H32c-17.673,0-32,14.327-32,32s14.327,32,32,32h448c17.673,0,32-14.327,32-32S497.673,224,480,224z
		"/>
	<path fill="#BC422B" d="M32,138.667h448c17.673,0,32-14.327,32-32s-14.327-32-32-32H32c-17.673,0-32,14.327-32,32
		S14.327,138.667,32,138.667z"/>
	<path fill="#BC422B" d="M480,373.333H32c-17.673,0-32,14.327-32,32s14.327,32,32,32h448c17.673,0,32-14.327,32-32
		S497.673,373.333,480,373.333z"/>
</g>
</svg>
